<svg width="48" height="48" viewBox="0 0 48 48" fill="none" xmlns="http://www.w3.org/2000/svg">
<mask id="mask0_249_584" style="mask-type:alpha" maskUnits="userSpaceOnUse" x="0" y="0" width="48" height="48">
<rect width="48" height="48" fill="#D9D9D9"/>
</mask>
<g mask="url(#mask0_249_584)">
<path d="M7.5 36C7.075 36 6.71883 35.8553 6.4315 35.566C6.14383 35.277 6 34.9187 6 34.491C6 34.0637 6.14383 33.7083 6.4315 33.425C6.71883 33.1417 7.075 33 7.5 33H40.5C40.925 33 41.2813 33.1447 41.569 33.434C41.8563 33.723 42 34.0813 42 34.509C42 34.9363 41.8563 35.2917 41.569 35.575C41.2813 35.8583 40.925 36 40.5 36H7.5ZM7.5 25.5C7.075 25.5 6.71883 25.3553 6.4315 25.066C6.14383 24.777 6 24.4187 6 23.991C6 23.5637 6.14383 23.2083 6.4315 22.925C6.71883 22.6417 7.075 22.5 7.5 22.5H40.5C40.925 22.5 41.2813 22.6447 41.569 22.934C41.8563 23.223 42 23.5813 42 24.009C42 24.4363 41.8563 24.7917 41.569 25.075C41.2813 25.3583 40.925 25.5 40.5 25.5H7.5ZM7.5 15C7.075 15 6.71883 14.8553 6.4315 14.566C6.14383 14.277 6 13.9187 6 13.491C6 13.0637 6.14383 12.7083 6.4315 12.425C6.71883 12.1417 7.075 12 7.5 12H40.5C40.925 12 41.2813 12.1447 41.569 12.434C41.8563 12.723 42 13.0813 42 13.509C42 13.9363 41.8563 14.2917 41.569 14.575C41.2813 14.8583 40.925 15 40.5 15H7.5Z" fill="#7FE9EC"/>
</g>
</svg>
